<?xml version="1.0" encoding="UTF-8" standalone="no"?>
<!-- Created with Inkscape (http://www.inkscape.org/) -->

<svg
   version="1.1"
   id="svg1"
   width="704.76001"
   height="106.17333"
   viewBox="0 0 704.76001 106.17333"
   sodipodi:docname="CUBoulderOneLine.svg"
   inkscape:version="1.3.2 (091e20ef0f, 2023-11-25, custom)"
   xmlns:inkscape="http://www.inkscape.org/namespaces/inkscape"
   xmlns:sodipodi="http://sodipodi.sourceforge.net/DTD/sodipodi-0.dtd"
   xmlns="http://www.w3.org/2000/svg"
   xmlns:svg="http://www.w3.org/2000/svg">
  <defs
     id="defs1" />
  <sodipodi:namedview
     id="namedview1"
     pagecolor="#ffffff"
     bordercolor="#666666"
     borderopacity="1.0"
     inkscape:showpageshadow="2"
     inkscape:pageopacity="0.0"
     inkscape:pagecheckerboard="0"
     inkscape:deskcolor="#d1d1d1"
     inkscape:zoom="4.5533231"
     inkscape:cx="412.1166"
     inkscape:cy="53.038187"
     inkscape:window-width="1914"
     inkscape:window-height="1261"
     inkscape:window-x="26"
     inkscape:window-y="23"
     inkscape:window-maximized="0"
     inkscape:current-layer="g1">
    <inkscape:page
       x="0"
       y="0"
       inkscape:label="1"
       id="page1"
       width="704.76001"
       height="106.17333"
       margin="0"
       bleed="0" />
  </sodipodi:namedview>
  <g
     id="g1"
     inkscape:groupmode="layer"
     inkscape:label="1">
    <g
       id="group-R5">
      <path
         id="path2"
         d="m 992.68,587.883 h 21.76 v -141.43 c -0.32,-53.117 24.95,-73.277 66.87,-73.277 42.24,0 67.52,20.16 67.2,73.277 v 141.43 h 21.75 V 441.656 c 0,-47.043 -25.27,-87.039 -88.95,-87.039 -63.36,0 -88.63,39.996 -88.63,87.039 v 146.227"
         style="fill:#231f20;fill-opacity:1;fill-rule:nonzero;stroke:none"
         transform="matrix(0.13333333,0,0,-0.13333333,0,106.17333)" />
      <path
         id="path3"
         d="m 1209.96,524.527 h 20.16 v -28.476 h 0.64 c 7.36,19.84 29.44,33.277 52.79,33.277 46.4,0 60.48,-24.316 60.48,-63.68 V 359.426 h -20.16 v 103.027 c 0,28.477 -9.28,49.914 -41.92,49.914 -31.99,0 -51.19,-24.316 -51.83,-56.633 v -96.308 h -20.16 v 165.101"
         style="fill:#231f20;fill-opacity:1;fill-rule:nonzero;stroke:none"
         transform="matrix(0.13333333,0,0,-0.13333333,0,106.17333)" />
      <path
         id="path4"
         d="m 1382.43,524.527 h 20.16 V 359.426 h -20.16 z m 0,63.356 h 20.16 v -32.317 h -20.16 v 32.317"
         style="fill:#231f20;fill-opacity:1;fill-rule:nonzero;stroke:none"
         transform="matrix(0.13333333,0,0,-0.13333333,0,106.17333)" />
      <path
         id="path5"
         d="m 1422.75,524.527 h 22.4 l 51.84,-144.949 h 0.64 l 51.19,144.949 h 20.8 l -61.75,-165.101 h -21.44 l -63.68,165.101"
         style="fill:#231f20;fill-opacity:1;fill-rule:nonzero;stroke:none"
         transform="matrix(0.13333333,0,0,-0.13333333,0,106.17333)" />
      <path
         id="path6"
         d="m 1708.18,453.492 c -0.96,30.399 -19.84,58.875 -52.47,58.875 -32.96,0 -51.2,-28.797 -54.4,-58.875 z m -106.87,-16.957 c 0.32,-29.441 15.68,-64.961 54.4,-64.961 29.44,0 45.43,17.285 51.83,42.239 h 20.16 c -8.64,-37.434 -30.4,-59.196 -71.99,-59.196 -52.48,0 -74.56,40.321 -74.56,87.356 0,43.515 22.08,87.355 74.56,87.355 53.11,0 74.23,-46.398 72.63,-92.793 h -127.03"
         style="fill:#231f20;fill-opacity:1;fill-rule:nonzero;stroke:none"
         transform="matrix(0.13333333,0,0,-0.13333333,0,106.17333)" />
      <path
         id="path7"
         d="m 1755.55,524.527 h 18.56 v -38.714 h 0.64 c 10.24,26.554 32.64,42.234 62.39,40.957 v -20.165 c -36.47,1.926 -61.43,-24.953 -61.43,-59.195 v -87.984 h -20.16 v 165.101"
         style="fill:#231f20;fill-opacity:1;fill-rule:nonzero;stroke:none"
         transform="matrix(0.13333333,0,0,-0.13333333,0,106.17333)" />
      <path
         id="path8"
         d="m 1955.23,476.211 c -0.97,24.957 -20.17,36.156 -43.2,36.156 -17.92,0 -39.04,-7.039 -39.04,-28.476 0,-17.918 20.48,-24.321 34.24,-27.84 l 26.88,-6.078 c 23.03,-3.52 47.04,-16.961 47.04,-45.758 0,-35.836 -35.52,-49.598 -66.24,-49.598 -38.4,0 -64.64,17.922 -67.83,58.238 h 20.15 c 1.6,-27.199 21.76,-41.281 48.63,-41.281 18.89,0 45.12,8.321 45.12,31.36 0,19.199 -17.92,25.601 -36.15,30.078 l -25.92,5.761 c -26.24,7.04 -46.07,15.997 -46.07,44.157 0,33.597 32.95,46.398 62.07,46.398 32.96,0 59.2,-17.281 60.48,-53.117 h -20.16"
         style="fill:#231f20;fill-opacity:1;fill-rule:nonzero;stroke:none"
         transform="matrix(0.13333333,0,0,-0.13333333,0,106.17333)" />
      <path
         id="path9"
         d="m 2010.59,524.527 h 20.16 V 359.426 h -20.16 z m 0,63.356 h 20.16 v -32.317 h -20.16 v 32.317"
         style="fill:#231f20;fill-opacity:1;fill-rule:nonzero;stroke:none"
         transform="matrix(0.13333333,0,0,-0.13333333,0,106.17333)" />
      <path
         id="path10"
         d="m 2101.47,524.527 h 33.59 V 507.57 h -33.59 V 396.215 c 0,-13.117 1.91,-20.793 16.32,-21.75 5.75,0 11.51,0.312 17.27,0.957 v -17.285 c -6.08,0 -11.83,-0.637 -17.92,-0.637 -26.87,0 -36.16,8.953 -35.84,37.113 V 507.57 h -28.8 v 16.957 h 28.8 v 49.594 h 20.17 v -49.594"
         style="fill:#231f20;fill-opacity:1;fill-rule:nonzero;stroke:none"
         transform="matrix(0.13333333,0,0,-0.13333333,0,106.17333)" />
      <path
         id="path11"
         d="m 2145.63,524.527 h 21.44 l 54.39,-140.785 50.88,140.785 h 20.16 l -71.68,-190.386 c -11.52,-27.84 -18.24,-35.828 -43.52,-35.828 -8,0.312 -12.16,0.312 -15.35,1.589 v 16.965 c 4.79,-0.957 9.28,-1.601 13.76,-1.601 17.91,0 22.07,10.554 28.79,25.918 l 7.04,18.875 -65.91,164.468"
         style="fill:#231f20;fill-opacity:1;fill-rule:nonzero;stroke:none"
         transform="matrix(0.13333333,0,0,-0.13333333,0,106.17333)" />
      <path
         id="path12"
         d="m 2413.15,441.973 c 0,-35.196 19.2,-70.399 57.92,-70.399 38.71,0 57.91,35.203 57.91,70.399 0,35.195 -19.2,70.394 -57.91,70.394 -38.72,0 -57.92,-35.199 -57.92,-70.394 z m 136,0 c 0,-47.36 -27.52,-87.356 -78.08,-87.356 -50.56,0 -78.08,39.996 -78.08,87.356 0,47.359 27.52,87.355 78.08,87.355 50.56,0 78.08,-39.996 78.08,-87.355"
         style="fill:#231f20;fill-opacity:1;fill-rule:nonzero;stroke:none"
         transform="matrix(0.13333333,0,0,-0.13333333,0,106.17333)" />
      <path
         id="path13"
         d="m 2642.91,507.57 h -32.64 V 359.426 h -20.16 V 507.57 h -28.15 v 16.957 h 28.15 v 15.039 c -0.32,28.477 7.68,48.317 40,48.317 5.75,0 10.56,-0.32 16.96,-1.281 v -17.274 c -5.44,0.957 -9.92,1.594 -14.72,1.594 -22.4,0 -21.76,-14.074 -22.08,-31.996 v -14.399 h 32.64 V 507.57"
         style="fill:#231f20;fill-opacity:1;fill-rule:nonzero;stroke:none"
         transform="matrix(0.13333333,0,0,-0.13333333,0,106.17333)" />
      <path
         id="path14"
         d="m 2921.95,518.77 c -7.69,35.195 -36.8,55.351 -70.08,55.351 -60.48,0 -86.07,-50.551 -86.07,-100.469 0,-49.918 25.59,-100.476 86.07,-100.476 42.24,0 69.11,32.64 73.27,73.277 h 21.76 c -6.07,-55.992 -41.59,-91.836 -95.03,-91.836 -71.99,0 -107.83,56.637 -107.83,119.035 0,62.395 35.84,119.028 107.83,119.028 43.19,0 86.07,-25.918 91.84,-73.91 h -21.76"
         style="fill:#231f20;fill-opacity:1;fill-rule:nonzero;stroke:none"
         transform="matrix(0.13333333,0,0,-0.13333333,0,106.17333)" />
      <path
         id="path15"
         d="m 2988.19,441.973 c 0,-35.196 19.2,-70.399 57.92,-70.399 38.71,0 57.91,35.203 57.91,70.399 0,35.195 -19.2,70.394 -57.91,70.394 -38.72,0 -57.92,-35.199 -57.92,-70.394 z m 135.99,0 c 0,-47.36 -27.51,-87.356 -78.07,-87.356 -50.56,0 -78.08,39.996 -78.08,87.356 0,47.359 27.52,87.355 78.08,87.355 50.56,0 78.07,-39.996 78.07,-87.355"
         style="fill:#231f20;fill-opacity:1;fill-rule:nonzero;stroke:none"
         transform="matrix(0.13333333,0,0,-0.13333333,0,106.17333)" />
      <path
         id="path16"
         d="m 3154.59,587.883 h 20.16 V 359.426 h -20.16 v 228.457"
         style="fill:#231f20;fill-opacity:1;fill-rule:nonzero;stroke:none"
         transform="matrix(0.13333333,0,0,-0.13333333,0,106.17333)" />
      <path
         id="path17"
         d="m 3225.31,441.973 c 0,-35.196 19.2,-70.399 57.92,-70.399 38.71,0 57.91,35.203 57.91,70.399 0,35.195 -19.2,70.394 -57.91,70.394 -38.72,0 -57.92,-35.199 -57.92,-70.394 z m 135.99,0 c 0,-47.36 -27.52,-87.356 -78.07,-87.356 -50.56,0 -78.08,39.996 -78.08,87.356 0,47.359 27.52,87.355 78.08,87.355 50.55,0 78.07,-39.996 78.07,-87.355"
         style="fill:#231f20;fill-opacity:1;fill-rule:nonzero;stroke:none"
         transform="matrix(0.13333333,0,0,-0.13333333,0,106.17333)" />
      <path
         id="path18"
         d="m 3391.39,524.527 h 18.56 v -38.714 h 0.64 c 10.24,26.554 32.64,42.234 62.39,40.957 v -20.165 c -36.47,1.926 -61.43,-24.953 -61.43,-59.195 v -87.984 h -20.16 v 165.101"
         style="fill:#231f20;fill-opacity:1;fill-rule:nonzero;stroke:none"
         transform="matrix(0.13333333,0,0,-0.13333333,0,106.17333)" />
      <path
         id="path19"
         d="m 3597.79,449.652 h -0.65 c -2.56,-4.797 -11.51,-6.398 -16.96,-7.355 -34.23,-6.086 -76.79,-5.762 -76.79,-38.082 0,-20.16 17.92,-32.641 36.8,-32.641 30.71,0 57.91,19.524 57.6,51.84 z m -107.52,24.317 c 1.92,38.719 29.12,55.359 66.87,55.359 29.12,0 60.8,-8.961 60.8,-53.117 v -87.676 c 0,-7.676 3.84,-12.156 11.84,-12.156 2.25,0 4.8,0.644 6.4,1.277 v -16.961 c -4.48,-0.957 -7.68,-1.269 -13.12,-1.269 -20.48,0 -23.68,11.512 -23.68,28.793 h -0.63 c -14.09,-21.442 -28.48,-33.602 -60.16,-33.602 -30.4,0 -55.36,15.043 -55.36,48.317 0,46.398 45.11,48 88.64,53.117 16.63,1.922 25.92,4.16 25.92,22.402 0,27.195 -19.52,33.914 -43.21,33.914 -24.95,0 -43.51,-11.515 -44.15,-38.398 h -20.16"
         style="fill:#231f20;fill-opacity:1;fill-rule:nonzero;stroke:none"
         transform="matrix(0.13333333,0,0,-0.13333333,0,106.17333)" />
      <path
         id="path20"
         d="m 3725.46,371.574 c 42.87,0 57.91,36.16 57.91,70.399 0,34.238 -15.04,70.394 -57.91,70.394 -38.39,0 -54.08,-36.156 -54.08,-70.394 0,-34.239 15.69,-70.399 54.08,-70.399 z m 78.08,-12.148 h -18.56 v 31.351 h -0.64 c -8.64,-21.441 -34.88,-36.16 -58.88,-36.16 -50.23,0 -74.23,40.637 -74.23,87.356 0,46.718 24,87.355 74.23,87.355 24.64,0 48.64,-12.48 57.28,-36.16 h 0.63 v 94.715 h 20.17 V 359.426"
         style="fill:#231f20;fill-opacity:1;fill-rule:nonzero;stroke:none"
         transform="matrix(0.13333333,0,0,-0.13333333,0,106.17333)" />
      <path
         id="path21"
         d="m 3853.77,441.973 c 0,-35.196 19.2,-70.399 57.92,-70.399 38.72,0 57.91,35.203 57.91,70.399 0,35.195 -19.19,70.394 -57.91,70.394 -38.72,0 -57.92,-35.199 -57.92,-70.394 z m 136,0 c 0,-47.36 -27.52,-87.356 -78.08,-87.356 -50.55,0 -78.07,39.996 -78.07,87.356 0,47.359 27.52,87.355 78.07,87.355 50.56,0 78.08,-39.996 78.08,-87.355"
         style="fill:#231f20;fill-opacity:1;fill-rule:nonzero;stroke:none"
         transform="matrix(0.13333333,0,0,-0.13333333,0,106.17333)" />
      <path
         id="path22"
         d="m 4161.92,398.457 h 53.76 c 19.83,0 37.11,6.398 37.11,30.078 0,23.36 -14.72,32.637 -36.15,32.637 h -54.72 z m 0,96.953 h 50.88 c 17.6,0 30.71,8 30.71,27.199 0,21.758 -16.64,26.239 -34.55,26.239 h -47.04 z m -50.24,92.473 h 107.51 c 43.52,0 72.96,-14.078 72.96,-56.637 0,-22.398 -11.2,-38.078 -31.04,-47.676 27.84,-8 41.92,-29.437 41.92,-57.914 0,-46.398 -39.35,-66.23 -80.63,-66.23 h -110.72 v 228.457"
         style="fill:#231f20;fill-opacity:1;fill-rule:nonzero;stroke:none"
         transform="matrix(0.13333333,0,0,-0.13333333,0,106.17333)" />
      <path
         id="path23"
         d="m 4412.49,389.176 c 31.03,0 40.31,26.558 40.31,52.797 0,26.558 -9.28,53.117 -40.31,53.117 -30.73,0 -40,-26.559 -40,-53.117 0,-26.239 9.27,-52.797 40,-52.797 z m 0,140.152 c 52.14,0 85.75,-34.558 85.75,-87.355 0,-52.477 -33.61,-87.032 -85.75,-87.032 -51.85,0 -85.44,34.555 -85.44,87.032 0,52.797 33.59,87.355 85.44,87.355"
         style="fill:#231f20;fill-opacity:1;fill-rule:nonzero;stroke:none"
         transform="matrix(0.13333333,0,0,-0.13333333,0,106.17333)" />
      <path
         id="path24"
         d="m 4682.88,359.426 h -43.21 v 23.027 h -0.95 c -11.53,-18.555 -31.36,-27.512 -50.56,-27.512 -48.32,0 -60.48,27.2 -60.48,68.157 v 101.75 h 45.44 v -93.43 c 0,-27.203 8,-40.641 29.12,-40.641 24.64,0 35.2,13.758 35.2,47.36 v 86.711 h 45.44 V 359.426"
         style="fill:#231f20;fill-opacity:1;fill-rule:nonzero;stroke:none"
         transform="matrix(0.13333333,0,0,-0.13333333,0,106.17333)" />
      <path
         id="path25"
         d="m 4718.72,587.883 h 45.44 V 359.426 h -45.44 v 228.457"
         style="fill:#231f20;fill-opacity:1;fill-rule:nonzero;stroke:none"
         transform="matrix(0.13333333,0,0,-0.13333333,0,106.17333)" />
      <path
         id="path26"
         d="m 4878.39,495.09 c -29.75,0 -40,-25.598 -40,-52.793 0,-25.918 11.85,-53.121 40,-53.121 30.08,0 39.04,26.238 39.04,53.437 0,26.879 -9.6,52.477 -39.04,52.477 z m 39.68,-114.555 h -0.64 c -10.56,-17.918 -29.11,-25.594 -50.24,-25.594 -49.91,0 -74.24,42.875 -74.24,88.633 0,44.477 24.64,85.754 73.29,85.754 19.52,0 38.71,-8.32 48.95,-24.64 h 0.64 v 83.195 h 45.43 V 359.426 h -43.19 v 21.109"
         style="fill:#231f20;fill-opacity:1;fill-rule:nonzero;stroke:none"
         transform="matrix(0.13333333,0,0,-0.13333333,0,106.17333)" />
      <path
         id="path27"
         d="m 5106.87,459.895 c -4.16,23.035 -14.08,35.195 -36.16,35.195 -28.8,0 -37.12,-22.399 -37.76,-35.195 z m -73.92,-28.801 c 1.28,-28.797 15.37,-41.918 40.64,-41.918 18.24,0 32.96,11.199 35.84,21.441 h 40 c -12.8,-39.043 -40,-55.676 -77.44,-55.676 -52.15,0 -84.48,35.836 -84.48,87.032 0,49.593 34.24,87.355 84.48,87.355 56.32,0 83.51,-47.359 80.32,-98.234 h -119.36"
         style="fill:#231f20;fill-opacity:1;fill-rule:nonzero;stroke:none"
         transform="matrix(0.13333333,0,0,-0.13333333,0,106.17333)" />
      <path
         id="path28"
         d="m 5179.19,524.848 h 43.21 v -30.715 h 0.63 c 8.32,20.793 30.72,35.195 52.8,35.195 3.2,0 7.04,-0.64 9.92,-1.601 v -42.239 c -4.16,0.961 -10.88,1.602 -16.32,1.602 -33.27,0 -44.8,-24 -44.8,-53.113 v -74.551 h -45.44 v 165.422"
         style="fill:#231f20;fill-opacity:1;fill-rule:nonzero;stroke:none"
         transform="matrix(0.13333333,0,0,-0.13333333,0,106.17333)" />
      <path
         id="path29"
         d="m 595.977,595.645 v 91.472 L 486.992,796.348 H 109.336 L 0,687.141 V 310.137 L 109.336,201.008 H 229.277 V 109.27 L 339.492,0 h 318.672 l 110.488,109.172 v 292.051 h 56.27 V 595.645 H 595.977"
         style="fill:#ccb567;fill-opacity:1;fill-rule:nonzero;stroke:none"
         transform="matrix(0.13333333,0,0,-0.13333333,0,106.17333)" />
      <path
         id="path30"
         d="M 482.324,785.031 584.629,682.422 V 584.309 H 813.574 V 412.492 H 757.305 V 113.926 L 653.516,11.3594 H 344.121 L 240.625,113.926 v 98.39 H 114.004 L 11.3281,314.895 V 682.434 L 114.004,785.031 h 368.32"
         style="fill:#231f20;fill-opacity:1;fill-rule:nonzero;stroke:none"
         transform="matrix(0.13333333,0,0,-0.13333333,0,106.17333)" />
      <path
         id="path31"
         d="M 125.742,240.676 H 268.926 V 125.754 l 86.855,-86.0743 h 286.114 l 87.089,86.0743 v 315.098 h 56.309 V 555.988 H 612.578 V 154.68 H 384.043 v 85.996 h 86.484 l 85.821,85.957 V 440.852 H 441.23 v -85.344 h -57.187 v 200.48 H 211.816 V 440.852 h 57.11 V 355.508 H 154.492 v 287.16 H 441.23 v -86.68 h 115.118 v 114.688 l -85.821,86.035 H 125.742 L 39.6094,670.715 V 326.633 l 86.1326,-85.957"
         style="fill:#ffffff;fill-opacity:1;fill-rule:nonzero;stroke:none"
         transform="matrix(0.13333333,0,0,-0.13333333,0,106.17333)" />
      <path
         id="path32"
         d="m 369.844,254.836 h 94.824 l 77.5,77.617 v 94.219 H 455.43 V 341.359 H 369.844 V 541.785 H 225.977 v -86.812 h 57.128 V 341.359 H 140.352 v 315.45 H 455.43 v -86.661 h 86.738 v 94.688 l -77.5,77.715 H 131.621 L 53.7891,664.836 V 332.453 L 131.582,254.836 H 283.105 V 131.672 l 78.536,-77.8829 h 274.414 l 78.789,77.9219 v 323.262 h 56.25 v 86.812 H 626.738 V 140.559 H 369.844 v 114.277"
         style="fill:#ccb567;fill-opacity:1;fill-rule:nonzero;stroke:none"
         transform="matrix(0.13333333,0,0,-0.13333333,0,106.17333)" />
    </g>
  </g>
</svg>
